<svg width="61" height="61" viewBox="0 0 61 61" fill="none" xmlns="http://www.w3.org/2000/svg">
<mask id="mask0" mask-type="alpha" maskUnits="userSpaceOnUse" x="0" y="0" width="61" height="61">
<circle cx="30.1936" cy="30.8064" r="16.1642" fill="#B04B4B"/>
<circle cx="30.1935" cy="21.6569" r="3.35484" fill="white"/>
<circle cx="30.1935" cy="21.6569" r="3.35484" fill="white"/>
<circle cx="21.044" cy="30.8065" r="3.35484" fill="white"/>
<circle cx="30.1935" cy="39.956" r="3.35484" fill="white"/>
<circle cx="39.3431" cy="30.8065" r="3.35484" fill="white"/>
<circle cx="39.3431" cy="30.8065" r="3.35484" fill="white"/>
<ellipse cx="30.1935" cy="57.0352" rx="3.96481" ry="3.96481" transform="rotate(-180 30.1935 57.0352)" fill="#B04B4B"/>
<rect x="32.3284" y="57.3402" width="4.2698" height="12.8094" transform="rotate(-180 32.3284 57.3402)" fill="#B04B4B"/>
<ellipse cx="30.1936" cy="4.57772" rx="3.96481" ry="3.96481" fill="#B04B4B"/>
<rect x="28.0587" y="4.27274" width="4.2698" height="12.8094" fill="#B04B4B"/>
<ellipse cx="50.0736" cy="11.0998" rx="3.96481" ry="3.96481" transform="rotate(45 50.0736 11.0998)" fill="#B04B4B"/>
<rect x="48.7797" y="9.37451" width="4.2698" height="12.8094" transform="rotate(45 48.7797 9.37451)" fill="#B04B4B"/>
<ellipse cx="50.0736" cy="50.0766" rx="3.96481" ry="3.96481" transform="rotate(135 50.0736 50.0766)" fill="#B04B4B"/>
<rect x="51.7989" y="48.7826" width="4.2698" height="12.8094" transform="rotate(135 51.7989 48.7826)" fill="#B04B4B"/>
<ellipse cx="10.4869" cy="11.0997" rx="3.96481" ry="3.96481" transform="rotate(-45 10.4869 11.0997)" fill="#B04B4B"/>
<rect x="8.7616" y="12.3937" width="4.2698" height="12.8094" transform="rotate(-45 8.7616 12.3937)" fill="#B04B4B"/>
<ellipse cx="9.87688" cy="50.0766" rx="3.96481" ry="3.96481" transform="rotate(-135 9.87688 50.0766)" fill="#B04B4B"/>
<rect x="11.1708" y="51.8018" width="4.2698" height="12.8094" transform="rotate(-135 11.1708 51.8018)" fill="#B04B4B"/>
<ellipse cx="56.4223" cy="30.8064" rx="3.96481" ry="3.96481" transform="rotate(90 56.4223 30.8064)" fill="#B04B4B"/>
<rect x="56.7273" y="28.6716" width="4.2698" height="12.8094" transform="rotate(90 56.7273 28.6716)" fill="#B04B4B"/>
<ellipse cx="3.96481" cy="30.8064" rx="3.96481" ry="3.96481" transform="rotate(-90 3.96481 30.8064)" fill="#B04B4B"/>
<rect x="3.65982" y="32.9413" width="4.2698" height="12.8094" transform="rotate(-90 3.65982 32.9413)" fill="#B04B4B"/>
</mask>
<g mask="url(#mask0)">
<path d="M105.525 35.9911C105.525 54.5194 80.81 69.5395 50.3226 69.5395C19.8352 69.5395 -1.52493 68.5488 -1.52493 50.0205C-1.52493 31.4922 75.9525 -12.1965 106.44 -12.1965C136.927 -12.1965 105.525 17.4629 105.525 35.9911Z" fill="#3638AD"/>
<path d="M53.3724 -6.09679C53.3724 12.263 32.7669 35.6862 15.2493 35.6862C-2.26836 35.6862 -21.9589 33.002 -21.9589 14.6422C-21.9589 -3.71761 -2.26836 -30.8006 15.2493 -30.8006C32.7669 -30.8006 53.3724 -24.4566 53.3724 -6.09679Z" fill="#585AC9"/>
</g>
</svg>
