<svg width="250" height="61" viewBox="0 0 250 61" fill="none" xmlns="http://www.w3.org/2000/svg">
<mask id="mask0" mask-type="alpha" maskUnits="userSpaceOnUse" x="0" y="0" width="61" height="61">
<circle cx="30.1936" cy="30.8064" r="16.1642" fill="#B04B4B"/>
<circle cx="30.1935" cy="21.6569" r="3.35484" fill="white"/>
<circle cx="30.1935" cy="21.6569" r="3.35484" fill="white"/>
<circle cx="21.044" cy="30.8065" r="3.35484" fill="white"/>
<circle cx="30.1935" cy="39.956" r="3.35484" fill="white"/>
<circle cx="39.3431" cy="30.8065" r="3.35484" fill="white"/>
<circle cx="39.3431" cy="30.8065" r="3.35484" fill="white"/>
<ellipse cx="30.1935" cy="57.0352" rx="3.96481" ry="3.96481" transform="rotate(-180 30.1935 57.0352)" fill="#B04B4B"/>
<rect x="32.3284" y="57.3402" width="4.2698" height="12.8094" transform="rotate(-180 32.3284 57.3402)" fill="#B04B4B"/>
<ellipse cx="30.1936" cy="4.57772" rx="3.96481" ry="3.96481" fill="#B04B4B"/>
<rect x="28.0587" y="4.27274" width="4.2698" height="12.8094" fill="#B04B4B"/>
<ellipse cx="50.0736" cy="11.0998" rx="3.96481" ry="3.96481" transform="rotate(45 50.0736 11.0998)" fill="#B04B4B"/>
<rect x="48.7797" y="9.37451" width="4.2698" height="12.8094" transform="rotate(45 48.7797 9.37451)" fill="#B04B4B"/>
<ellipse cx="50.0736" cy="50.0766" rx="3.96481" ry="3.96481" transform="rotate(135 50.0736 50.0766)" fill="#B04B4B"/>
<rect x="51.7989" y="48.7826" width="4.2698" height="12.8094" transform="rotate(135 51.7989 48.7826)" fill="#B04B4B"/>
<ellipse cx="10.4869" cy="11.0997" rx="3.96481" ry="3.96481" transform="rotate(-45 10.4869 11.0997)" fill="#B04B4B"/>
<rect x="8.7616" y="12.3937" width="4.2698" height="12.8094" transform="rotate(-45 8.7616 12.3937)" fill="#B04B4B"/>
<ellipse cx="9.87688" cy="50.0766" rx="3.96481" ry="3.96481" transform="rotate(-135 9.87688 50.0766)" fill="#B04B4B"/>
<rect x="11.1708" y="51.8018" width="4.2698" height="12.8094" transform="rotate(-135 11.1708 51.8018)" fill="#B04B4B"/>
<ellipse cx="56.4223" cy="30.8064" rx="3.96481" ry="3.96481" transform="rotate(90 56.4223 30.8064)" fill="#B04B4B"/>
<rect x="56.7273" y="28.6716" width="4.2698" height="12.8094" transform="rotate(90 56.7273 28.6716)" fill="#B04B4B"/>
<ellipse cx="3.96481" cy="30.8064" rx="3.96481" ry="3.96481" transform="rotate(-90 3.96481 30.8064)" fill="#B04B4B"/>
<rect x="3.65982" y="32.9413" width="4.2698" height="12.8094" transform="rotate(-90 3.65982 32.9413)" fill="#B04B4B"/>
</mask>
<g mask="url(#mask0)">
<path d="M105.525 35.9911C105.525 54.5194 80.81 69.5395 50.3226 69.5395C19.8352 69.5395 -1.52493 68.5488 -1.52493 50.0205C-1.52493 31.4922 75.9525 -12.1965 106.44 -12.1965C136.927 -12.1965 105.525 17.4629 105.525 35.9911Z" fill="#3638AD"/>
<path d="M53.3724 -6.09679C53.3724 12.263 32.7669 35.6862 15.2493 35.6862C-2.26836 35.6862 -21.9589 33.002 -21.9589 14.6422C-21.9589 -3.71761 -2.26836 -30.8006 15.2493 -30.8006C32.7669 -30.8006 53.3724 -24.4566 53.3724 -6.09679Z" fill="#585AC9"/>
</g>
<path d="M91.82 41.27C89.74 41.27 87.92 40.83 86.36 39.95C84.8 39.07 83.6 37.81 82.76 36.17C81.92 34.53 81.5 32.61 81.5 30.41C81.5 28.21 81.92 26.3 82.76 24.68C83.6 23.04 84.8 21.78 86.36 20.9C87.92 20.02 89.74 19.58 91.82 19.58C94.44 19.58 96.7 20.3 98.6 21.74C98.9 21.98 99.11 22.22 99.23 22.46C99.35 22.7 99.41 23 99.41 23.36C99.41 23.88 99.26 24.33 98.96 24.71C98.68 25.07 98.33 25.25 97.91 25.25C97.63 25.25 97.38 25.22 97.16 25.16C96.96 25.08 96.73 24.95 96.47 24.77C95.67 24.25 94.93 23.88 94.25 23.66C93.57 23.42 92.84 23.3 92.06 23.3C90.14 23.3 88.69 23.9 87.71 25.1C86.75 26.28 86.27 28.05 86.27 30.41C86.27 35.17 88.2 37.55 92.06 37.55C92.8 37.55 93.5 37.44 94.16 37.22C94.82 36.98 95.59 36.6 96.47 36.08C96.77 35.9 97.02 35.78 97.22 35.72C97.42 35.64 97.65 35.6 97.91 35.6C98.33 35.6 98.68 35.79 98.96 36.17C99.26 36.53 99.41 36.97 99.41 37.49C99.41 37.85 99.34 38.16 99.2 38.42C99.08 38.66 98.88 38.89 98.6 39.11C96.7 40.55 94.44 41.27 91.82 41.27ZM111.713 41.27C109.613 41.27 107.783 40.83 106.223 39.95C104.683 39.05 103.493 37.79 102.653 36.17C101.813 34.53 101.393 32.61 101.393 30.41C101.393 28.21 101.813 26.3 102.653 24.68C103.493 23.04 104.683 21.78 106.223 20.9C107.783 20.02 109.613 19.58 111.713 19.58C113.813 19.58 115.633 20.02 117.173 20.9C118.733 21.78 119.933 23.04 120.773 24.68C121.613 26.3 122.033 28.21 122.033 30.41C122.033 32.61 121.613 34.53 120.773 36.17C119.933 37.79 118.733 39.05 117.173 39.95C115.633 40.83 113.813 41.27 111.713 41.27ZM111.713 37.64C113.473 37.64 114.853 37.02 115.853 35.78C116.873 34.54 117.383 32.75 117.383 30.41C117.383 28.07 116.883 26.29 115.883 25.07C114.883 23.83 113.493 23.21 111.713 23.21C109.933 23.21 108.543 23.83 107.543 25.07C106.563 26.29 106.073 28.07 106.073 30.41C106.073 32.75 106.573 34.54 107.573 35.78C108.573 37.02 109.953 37.64 111.713 37.64ZM140.32 20.93C140.5 20.51 140.76 20.2 141.1 20C141.44 19.78 141.82 19.67 142.24 19.67C142.84 19.67 143.38 19.87 143.86 20.27C144.34 20.67 144.58 21.16 144.58 21.74C144.58 22.04 144.51 22.34 144.37 22.64L136.27 39.74C136.05 40.2 135.72 40.56 135.28 40.82C134.84 41.06 134.36 41.18 133.84 41.18C133.32 41.18 132.84 41.06 132.4 40.82C131.96 40.56 131.63 40.2 131.41 39.74L123.31 22.64C123.17 22.36 123.1 22.07 123.1 21.77C123.1 21.17 123.35 20.67 123.85 20.27C124.35 19.87 124.91 19.67 125.53 19.67C125.95 19.67 126.33 19.78 126.67 20C127.03 20.2 127.3 20.51 127.48 20.93L133.9 34.97L140.32 20.93ZM149.186 41.18C148.466 41.18 147.896 40.97 147.476 40.55C147.056 40.13 146.846 39.56 146.846 38.84V22.01C146.846 21.31 147.056 20.75 147.476 20.33C147.896 19.91 148.466 19.7 149.186 19.7C149.906 19.7 150.476 19.91 150.896 20.33C151.316 20.75 151.526 21.31 151.526 22.01V38.84C151.526 39.56 151.316 40.13 150.896 40.55C150.476 40.97 149.906 41.18 149.186 41.18ZM157.913 41C157.213 41 156.673 40.81 156.293 40.43C155.913 40.05 155.723 39.51 155.723 38.81V22.04C155.723 21.34 155.913 20.8 156.293 20.42C156.673 20.04 157.213 19.85 157.913 19.85H163.943C166.243 19.85 168.223 20.27 169.883 21.11C171.543 21.95 172.813 23.16 173.693 24.74C174.573 26.32 175.013 28.21 175.013 30.41C175.013 32.61 174.573 34.51 173.693 36.11C172.833 37.69 171.573 38.9 169.913 39.74C168.253 40.58 166.263 41 163.943 41H157.913ZM163.613 37.22C168.113 37.22 170.363 34.95 170.363 30.41C170.363 25.89 168.113 23.63 163.613 23.63H160.403V37.22H163.613ZM188.543 34.73C187.123 34.73 186.413 34.14 186.413 32.96C186.413 31.78 187.123 31.19 188.543 31.19H194.423C195.843 31.19 196.553 31.78 196.553 32.96C196.553 34.14 195.843 34.73 194.423 34.73H188.543ZM221.655 37.25C223.115 37.25 223.845 37.87 223.845 39.11C223.845 40.37 223.115 41 221.655 41H211.395C209.915 41 209.175 40.37 209.175 39.11C209.175 37.87 209.915 37.25 211.395 37.25H214.185V24.98L211.545 26.57C211.245 26.75 210.945 26.84 210.645 26.84C210.145 26.84 209.715 26.63 209.355 26.21C209.015 25.79 208.845 25.32 208.845 24.8C208.845 24.1 209.155 23.57 209.775 23.21L214.515 20.36C215.215 19.94 215.915 19.73 216.615 19.73C217.275 19.73 217.815 19.94 218.235 20.36C218.655 20.76 218.865 21.31 218.865 22.01V37.25H221.655ZM232.743 19.58C235.483 19.58 237.603 20.49 239.103 22.31C240.603 24.13 241.353 26.73 241.353 30.11C241.353 32.37 241.003 34.35 240.303 36.05C239.603 37.73 238.593 39.02 237.273 39.92C235.973 40.82 234.453 41.27 232.713 41.27C231.573 41.27 230.423 41.08 229.263 40.7C228.103 40.32 227.113 39.79 226.293 39.11C226.013 38.89 225.803 38.66 225.663 38.42C225.543 38.16 225.483 37.85 225.483 37.49C225.483 36.97 225.623 36.53 225.903 36.17C226.203 35.79 226.563 35.6 226.983 35.6C227.243 35.6 227.463 35.64 227.643 35.72C227.843 35.78 228.103 35.9 228.423 36.08C229.223 36.56 229.933 36.94 230.553 37.22C231.193 37.48 231.843 37.61 232.503 37.61C233.743 37.61 234.723 37.04 235.443 35.9C236.183 34.76 236.603 33.16 236.703 31.1C236.243 31.86 235.593 32.47 234.753 32.93C233.913 33.37 232.973 33.59 231.933 33.59C230.693 33.59 229.583 33.3 228.603 32.72C227.643 32.14 226.883 31.33 226.323 30.29C225.783 29.25 225.513 28.07 225.513 26.75C225.513 25.37 225.823 24.14 226.443 23.06C227.063 21.96 227.923 21.11 229.023 20.51C230.123 19.89 231.363 19.58 232.743 19.58ZM233.013 29.96C233.953 29.96 234.713 29.65 235.293 29.03C235.873 28.41 236.163 27.6 236.163 26.6C236.163 25.6 235.873 24.79 235.293 24.17C234.713 23.53 233.953 23.21 233.013 23.21C232.073 23.21 231.313 23.52 230.733 24.14C230.173 24.76 229.893 25.58 229.893 26.6C229.893 27.6 230.173 28.41 230.733 29.03C231.313 29.65 232.073 29.96 233.013 29.96Z" fill="#3638AD"/>
</svg>
